<svg width="64" height="64" xmlns="http://www.w3.org/2000/svg">

 <g>
  <title>background</title>
  <rect fill="none" id="canvas_background" height="402" width="582" y="-1" x="-1"/>
 </g>
 <g>
  <title>Layer 1</title>
  <path fill="#5b86e5" id="svg_2" d="m38.501,7.69c-10.944,0 -19.815,8.871 -19.815,19.816c0,10.859 8.736,19.673 19.562,19.809l0,8.43l13.54,-13.539c4.01,-3.626 6.53,-8.869 6.53,-14.7c-0.002,-10.945 -8.874,-19.816 -19.817,-19.816z"/>
  <path fill="#36d1dc" id="svg_3" d="m21.882,46.654l0,-2.405l-1.975,-0.024c-5.638,-0.07 -10.224,-4.714 -10.224,-10.353c0,-4.645 3.073,-8.585 7.292,-9.894c0.245,-1.498 0.644,-2.945 1.179,-4.325c-7.026,0.927 -12.471,6.942 -12.471,14.218c0,7.146 5.315,13.141 12.199,14.19l0,8.248l9.871,-9.871c-1.181,-0.676 -2.292,-1.456 -3.323,-2.332l-2.548,2.548z"/>
 </g>
</svg>